<svg xmlns="http://www.w3.org/2000/svg" width="576.424" height="728.418" viewBox="0 0 576.424 728.418">
  <g id="Group_9" transform="translate(-57 -1209.51)">
    <g id="light-bulb" transform="translate(73.514 1230.968)">
      <g id="Group_6" transform="translate(0 0)">
        <g id="Group_5">
          <path id="Path_28" d="M428.012,150.847c-34.056-32.758-78.792-49.642-126.124-47.91-90.769,3.608-164.8,80.379-165.087,171.292a171.42,171.42,0,0,0,39.829,110.395A249.068,249.068,0,0,1,234.352,543.65s-3.9,26.552,15.008,26.552H368.269c19.337,0,15.008-26.552,15.008-26.552,0-56.568,20.78-112.559,60.176-161.912a171.775,171.775,0,0,0-15.441-230.891ZM419.93,362.978c-42.859,53.682-65.8,114.868-66.67,177.209H264.368a279.456,279.456,0,0,0-64.65-174.756,141.853,141.853,0,0,1-32.758-91.058c.289-75.04,61.33-138.39,136.226-141.421A141.8,141.8,0,0,1,419.93,362.978Z" transform="translate(-28.859 29.681)" fill="#FFA41B"/>
          <path id="Path_29" d="M412.33,69.162a14.9,14.9,0,0,0-21.213,0l-36.654,36.654a15,15,0,0,0,21.213,21.213L412.33,90.376A14.9,14.9,0,0,0,412.33,69.162Z" transform="translate(65.615 12.804)" fill="#FFA41B"/>
          <path id="Path_30" d="M339.071,440.9H219.008a15.008,15.008,0,0,0,0,30.016H339.071a15.008,15.008,0,0,0,0-30.016Z" transform="translate(0.916 179.475)" fill="#FFA41B"/>
          <path id="Path_31" d="M309.415,480.1H234.808a15.008,15.008,0,1,0,0,30.016h74.607a15.008,15.008,0,1,0,0-30.016Z" transform="translate(7.916 196.844)" fill="#FFA41B"/>
          <path id="Path_32" d="M260.608,92.822a15,15,0,0,0,15.008-15.008V26.008a15.008,15.008,0,1,0-30.016,0V77.814A14.905,14.905,0,0,0,260.608,92.822Z" transform="translate(19.347 -11)" fill="#FFA41B"/>
          <path id="Path_33" d="M178.013,127.13a14.9,14.9,0,0,0,0-21.213L141.359,69.262a15,15,0,0,0-21.213,21.213L156.8,127.13A15.157,15.157,0,0,0,178.013,127.13Z" transform="translate(-38.18 12.848)" fill="#FFA41B"/>
          <path id="Path_34" d="M460.114,194.6H408.308a15.008,15.008,0,1,0,0,30.016h51.806a15.008,15.008,0,0,0,0-30.016Z" transform="translate(84.789 70.347)" fill="#FFA41B"/>
          <path id="Path_35" d="M128.814,194.6H77.008a15.008,15.008,0,0,0,0,30.016h51.806a15.008,15.008,0,0,0,0-30.016Z" transform="translate(-62 70.347)" fill="#FFA41B"/>
        </g>
      </g>
    </g>
    <g id="light-bulb-2" transform="translate(58 1210.51)">
      <g id="Group_6-2" transform="translate(0 0)">
        <g id="Group_5-2">
          <path id="Path_28-2" d="M428.012,150.847c-34.056-32.758-78.792-49.642-126.124-47.91-90.769,3.608-164.8,80.379-165.087,171.292a171.42,171.42,0,0,0,39.829,110.395A249.068,249.068,0,0,1,234.352,543.65s-3.9,26.552,15.008,26.552H368.269c19.337,0,15.008-26.552,15.008-26.552,0-56.568,20.78-112.559,60.176-161.912a171.775,171.775,0,0,0-15.441-230.891ZM419.93,362.978c-42.859,53.682-65.8,114.868-66.67,177.209H264.368a279.456,279.456,0,0,0-64.65-174.756,141.853,141.853,0,0,1-32.758-91.058c.289-75.04,61.33-138.39,136.226-141.421A141.8,141.8,0,0,1,419.93,362.978Z" transform="translate(-28.859 29.681)" fill="none" stroke="#fff" stroke-width="2"/>
          <path id="Path_29-2" d="M412.33,69.162a14.9,14.9,0,0,0-21.213,0l-36.654,36.654a15,15,0,0,0,21.213,21.213L412.33,90.376A14.9,14.9,0,0,0,412.33,69.162Z" transform="translate(65.615 12.804)" fill="none" stroke="#fff" stroke-width="2"/>
          <path id="Path_30-2" d="M339.071,440.9H219.008a15.008,15.008,0,0,0,0,30.016H339.071a15.008,15.008,0,0,0,0-30.016Z" transform="translate(0.916 179.475)" fill="none" stroke="#fff" stroke-width="2"/>
          <path id="Path_31-2" d="M309.415,480.1H234.808a15.008,15.008,0,1,0,0,30.016h74.607a15.008,15.008,0,1,0,0-30.016Z" transform="translate(7.916 196.844)" fill="none" stroke="#fff" stroke-width="2"/>
          <path id="Path_32-2" d="M260.608,92.822a15,15,0,0,0,15.008-15.008V26.008a15.008,15.008,0,1,0-30.016,0V77.814A14.905,14.905,0,0,0,260.608,92.822Z" transform="translate(19.347 -11)" fill="none" stroke="#fff" stroke-width="2"/>
          <path id="Path_33-2" d="M178.013,127.13a14.9,14.9,0,0,0,0-21.213L141.359,69.262a15,15,0,0,0-21.213,21.213L156.8,127.13A15.157,15.157,0,0,0,178.013,127.13Z" transform="translate(-38.18 12.848)" fill="none" stroke="#fff" stroke-width="2"/>
          <path id="Path_34-2" d="M460.114,194.6H408.308a15.008,15.008,0,1,0,0,30.016h51.806a15.008,15.008,0,0,0,0-30.016Z" transform="translate(84.789 70.347)" fill="none" stroke="#fff" stroke-width="2"/>
          <path id="Path_35-2" d="M128.814,194.6H77.008a15.008,15.008,0,0,0,0,30.016h51.806a15.008,15.008,0,0,0,0-30.016Z" transform="translate(-62 70.347)" fill="none" stroke="#fff" stroke-width="2"/>
        </g>
      </g>
    </g>
  </g>
</svg>
