<svg xmlns="http://www.w3.org/2000/svg" width="703.139" height="708.488" viewBox="0 0 703.139 708.488">
  <g id="Group_8" transform="translate(-926.387 -128.554)">
    <g id="rocket" transform="translate(950.889 158.446)">
      <path id="Path_26" d="M630.529.06C498.056-2.315,346.978,66.933,251.349,174.353A358.81,358.81,0,0,0,5.462,279.059a14.139,14.139,0,0,0,7.917,24.063L122.354,318.73,108.895,333.8a14.129,14.129,0,0,0,.566,19.426L291.19,534.956a14.171,14.171,0,0,0,19.426.537l15.071-13.459,15.608,108.975c.763,5.316,4.948,9.218,10.01,10.915a12.991,12.991,0,0,0,4.043.622,15.969,15.969,0,0,0,10.943-4.552c64.61-64.61,102.076-153.595,103.8-244.982C577.625,297.183,647.438,146.162,644.356,13.859A14.2,14.2,0,0,0,630.529.06Zm-130.3,244.078a70.7,70.7,0,1,1,0-99.984A70.471,70.471,0,0,1,500.234,244.138Z" transform="translate(34.183 -0.001)" fill="#005082"/>
      <path id="Path_27" d="M77.025,41.545C46.77,71.8,5.233,208.486.6,223.953a14.147,14.147,0,0,0,13.544,18.21,14.478,14.478,0,0,0,4.072-.594c15.467-4.637,152.153-46.175,182.408-76.43A87.394,87.394,0,0,0,77.025,41.545Z" transform="translate(0 436.433)" fill="#005082"/>
    </g>
    <g id="rocket-2" transform="translate(927.5 129.555)">
      <path id="Path_26-2" d="M630.529.06C498.056-2.315,346.978,66.933,251.349,174.353A358.81,358.81,0,0,0,5.462,279.059a14.139,14.139,0,0,0,7.917,24.063L122.354,318.73,108.895,333.8a14.129,14.129,0,0,0,.566,19.426L291.19,534.956a14.171,14.171,0,0,0,19.426.537l15.071-13.459,15.608,108.975c.763,5.316,4.948,9.218,10.01,10.915a12.991,12.991,0,0,0,4.043.622,15.969,15.969,0,0,0,10.943-4.552c64.61-64.61,102.076-153.595,103.8-244.982C577.625,297.183,647.438,146.162,644.356,13.859A14.2,14.2,0,0,0,630.529.06Zm-130.3,244.078a70.7,70.7,0,1,1,0-99.984A70.471,70.471,0,0,1,500.234,244.138Z" transform="translate(34.183 -0.001)" fill="none" stroke="#fff" stroke-width="2"/>
      <path id="Path_27-2" d="M77.025,41.545C46.77,71.8,5.233,208.486.6,223.953a14.147,14.147,0,0,0,13.544,18.21,14.478,14.478,0,0,0,4.072-.594c15.467-4.637,152.153-46.175,182.408-76.43A87.394,87.394,0,0,0,77.025,41.545Z" transform="translate(0 436.433)" fill="none" stroke="#fff" stroke-width="2"/>
    </g>
  </g>
</svg>
