<svg xmlns="http://www.w3.org/2000/svg" width="531.522" height="530.595" viewBox="0 0 531.522 530.595">
  <g id="Group_10" transform="translate(-1179.926 -2255.925)">
    <g id="discussion" transform="translate(1179.926 2272.555)">
      <g id="Group_7" transform="translate(0 0)">
        <path id="Path_36" d="M489.872,426.627a175.8,175.8,0,0,0,24.093-89.015c0-92.351-71.373-168.338-161.856-175.718C344.729,71.411,268.742.037,176.389.037,79.17.037.075,79.132.075,176.351a175.783,175.783,0,0,0,24.094,89.015L0,352.741l87.375-24.167a175.548,175.548,0,0,0,74.555,23.48c7.372,90.49,83.362,161.872,175.719,161.872a175.782,175.782,0,0,0,89.015-24.094L514.039,514Zm-397.76-130.6L43.188,309.555,56.72,260.63l-3.614-5.655a145.692,145.692,0,0,1-22.92-78.624c0-80.616,65.587-146.2,146.2-146.2,75.779,0,138.27,57.951,145.5,131.862-84.665,7.537-152.3,75.167-159.842,159.832a145.469,145.469,0,0,1-64.283-22.2ZM321.724,192.279A146.474,146.474,0,0,1,192.317,321.685,146.473,146.473,0,0,1,321.724,192.279ZM470.853,470.814l-48.925-13.532-5.655,3.614a145.692,145.692,0,0,1-78.624,22.92c-75.778,0-138.269-57.951-145.5-131.862,84.669-7.537,152.3-75.172,159.843-159.843,73.911,7.231,131.862,69.722,131.862,145.5a145.7,145.7,0,0,1-22.919,78.625l-3.614,5.654Z" transform="translate(0 -0.037)" fill="#ffa41b"/>
      </g>
    </g>
    <g id="discussion-2" transform="translate(1195.975 2256.925)">
      <g id="Group_7-2" transform="translate(0 0)">
        <path id="Path_36-2" d="M489.872,426.627a175.8,175.8,0,0,0,24.093-89.015c0-92.351-71.373-168.338-161.856-175.718C344.729,71.411,268.742.037,176.389.037,79.17.037.075,79.132.075,176.351a175.783,175.783,0,0,0,24.094,89.015L0,352.741l87.375-24.167a175.548,175.548,0,0,0,74.555,23.48c7.372,90.49,83.362,161.872,175.719,161.872a175.782,175.782,0,0,0,89.015-24.094L514.039,514Zm-397.76-130.6L43.188,309.555,56.72,260.63l-3.614-5.655a145.692,145.692,0,0,1-22.92-78.624c0-80.616,65.587-146.2,146.2-146.2,75.779,0,138.27,57.951,145.5,131.862-84.665,7.537-152.3,75.167-159.842,159.832a145.469,145.469,0,0,1-64.283-22.2ZM321.724,192.279A146.474,146.474,0,0,1,192.317,321.685,146.473,146.473,0,0,1,321.724,192.279ZM470.853,470.814l-48.925-13.532-5.655,3.614a145.692,145.692,0,0,1-78.624,22.92c-75.778,0-138.269-57.951-145.5-131.862,84.669-7.537,152.3-75.172,159.843-159.843,73.911,7.231,131.862,69.722,131.862,145.5a145.7,145.7,0,0,1-22.919,78.625l-3.614,5.654Z" transform="translate(0 -0.037)" fill="none" stroke="#fff" stroke-width="2"/>
      </g>
    </g>
  </g>
</svg>
