<svg xmlns="http://www.w3.org/2000/svg" width="56" height="56.05" viewBox="0 0 56 56.05">
  <g id="Group_2" transform="translate(-88 -176)">
    <g id="Group_1">
      <g id="Ellipse_6" transform="translate(88 176)" fill="#005082" stroke="#005082" stroke-width="1">
        <circle cx="28" cy="28" r="28" stroke="none"/>
        <circle cx="28" cy="28" r="27.5" fill="none"/>
      </g>
      <g id="Intersection_2" transform="translate(88 176)" fill="#ffa41b">
        <path d="M 28.5 55.49589920043945 C 24.82691192626953 55.43558883666992 21.26385116577148 54.71001052856445 17.90126991271973 53.33686065673828 C 14.50706005096436 51.95077896118164 11.45891952514648 49.96667098999023 8.841509819030762 47.43962097167969 C 6.225259780883789 44.91370010375977 4.171430110931396 41.97280120849609 2.737060070037842 38.6986083984375 C 1.252660036087036 35.31021118164063 0.5 31.71067047119141 0.5 28 C 0.5 24.28969955444336 1.252660036087036 20.69041061401367 2.737060070037842 17.30208015441895 C 4.171450138092041 14.02793025970459 6.225279808044434 11.08699989318848 8.841509819030762 8.560990333557129 C 11.45897006988525 6.033790111541748 14.50712013244629 4.04955005645752 17.90129089355469 2.66336989402771 C 21.2639102935791 1.290067791938782 24.82696342468262 0.5644161701202393 28.5 0.5041026473045349 L 28.5 55.49589920043945 Z" stroke="none"/>
        <path d="M 28 1.016727447509766 C 24.56882858276367 1.131786346435547 21.23986434936523 1.839977264404297 18.09033012390137 3.126251220703125 C 14.75524997711182 4.488300323486328 11.76034927368164 6.437831878662109 9.188810348510742 8.920680999755859 C 6.619729995727539 11.40116882324219 4.603130340576172 14.28858947753906 3.195039749145508 17.50271987915039 C 1.738519668579102 20.82738876342773 1 24.35918998718262 1 28 C 1 31.64118957519531 1.738519668579102 35.1732177734375 3.195039749145508 38.49797058105469 C 4.603109359741211 41.71212768554688 6.619699478149414 44.59951019287109 9.188800811767578 47.07991027832031 C 11.76029014587402 49.5626220703125 14.75518035888672 51.51202011108398 18.09029960632324 52.87395858764648 C 21.23979759216309 54.16010665893555 24.56877708435059 54.86822891235352 28 54.9832763671875 L 28 1.016727447509766 M 29 0 L 29 56 C 12.98457908630371 56 0 43.46487045288086 0 28 C 0 12.53675079345703 12.98457908630371 0 29 0 Z" stroke="none" fill="#005082"/>
      </g>
      <path id="Path_4" d="M144,134.025h26L144,160.9Z" transform="translate(-27.408 69.912)" fill="#ffa41b" stroke="#005082" stroke-width="1"/>
      <path id="Path_5" d="M148.062,136v9" transform="translate(-24.896 68.308)" fill="none" stroke="#005082" stroke-width="1"/>
      <path id="Path_6" d="M144,134.025h26L144,160.9Z" transform="translate(-27.408 69.912)" fill="#ffa41b" stroke="#005082" stroke-width="1"/>
    </g>
  </g>
</svg>
